<?xml version="1.0" encoding="utf-8"?>
<!-- Generator: Adobe Illustrator 21.0.0, SVG Export Plug-In . SVG Version: 6.00 Build 0)  -->
<svg version="1.1" id="Layer_1" xmlns="http://www.w3.org/2000/svg" xmlns:xlink="http://www.w3.org/1999/xlink" x="0px" y="0px"
	 viewBox="0 0 64 64" style="enable-background:new 0 0 64 64;" xml:space="preserve">
<style type="text/css">
	.st0{fill:#039BE5;stroke:#0277BD;stroke-linecap:round;stroke-linejoin:round;stroke-miterlimit:10;}
	.st1{fill:#81D4FA;stroke:#0277BD;stroke-linecap:round;stroke-linejoin:round;stroke-miterlimit:10;}
	.st2{fill:#EC407A;stroke:#0277BD;stroke-linecap:round;stroke-linejoin:round;stroke-miterlimit:10;}
	.st3{fill:#FFA726;stroke:#0277BD;stroke-linecap:round;stroke-linejoin:round;stroke-miterlimit:10;}
	.st4{fill:#80CBC4;stroke:#0277BD;stroke-linecap:round;stroke-linejoin:round;stroke-miterlimit:10;}
	.st5{fill:none;stroke:#F48FB1;stroke-linecap:round;stroke-linejoin:round;stroke-miterlimit:10;}
	.st6{fill:none;stroke:#FFCC80;stroke-linecap:round;stroke-linejoin:round;stroke-miterlimit:10;}
	.st7{fill:none;stroke:#E0F2F1;stroke-linecap:round;stroke-linejoin:round;stroke-miterlimit:10;}
	.st8{fill:none;stroke:#26A69A;stroke-linecap:round;stroke-linejoin:round;stroke-miterlimit:10;}
	.st9{fill:none;stroke:#F57C00;stroke-linecap:round;stroke-linejoin:round;stroke-miterlimit:10;}
	.st10{fill:none;stroke:#D81B60;stroke-linecap:round;stroke-linejoin:round;stroke-miterlimit:10;}
	.st11{fill:#EEEEEE;stroke:#0277BD;stroke-linecap:round;stroke-linejoin:round;stroke-miterlimit:10;}
	.st12{fill:none;stroke:#BDBDBD;stroke-linecap:round;stroke-linejoin:round;stroke-miterlimit:10;}
	.st13{fill:none;stroke:#E1F5FE;stroke-linecap:round;stroke-linejoin:round;stroke-miterlimit:10;}
	.st14{fill:none;stroke:#FFFFFF;stroke-linecap:round;stroke-linejoin:round;stroke-miterlimit:10;}
	.st15{fill:none;stroke:#29B6F6;stroke-linecap:round;stroke-linejoin:round;stroke-miterlimit:10;}
	.st16{fill:none;stroke:#4FC3F7;stroke-linecap:round;stroke-linejoin:round;stroke-miterlimit:10;}
	.st17{fill:none;stroke:#0277BD;stroke-linecap:round;stroke-linejoin:round;stroke-miterlimit:10;}
</style>
<g id="Weight">
	<g>
		<path class="st1" d="M51.5,18.5h-10c-1.7,0-3-1.3-3-3v-3c0-1.7,1.3-3,3-3H44c1.7,0,3-1.3,3-3v-3c0-1.7-1.3-3-3-3H20
			c-1.7,0-3,1.3-3,3v3c0,1.7,1.3,3,3,3h2.5c1.7,0,3,1.3,3,3v3c0,1.7-1.3,3-3,3h-10c-1.7,0-3,1.3-3,3V29h45v-7.5
			C54.5,19.8,53.2,18.5,51.5,18.5z"/>
		<path class="st1" d="M9.5,53v7.5c0,1.7,1.3,3,3,3h39c1.7,0,3-1.3,3-3V53H9.5z"/>
		<rect x="9.5" y="29" class="st3" width="45" height="24"/>
		<path class="st13" d="M12.6,20.5h38.8"/>
		<path class="st13" d="M20,2.5h24"/>
		<path class="st15" d="M51.5,61.5h-39"/>
		<g>
			<g>
				<path class="st11" d="M20.2,48.5c-0.8,0-1.5-0.7-1.5-1.5V35c0-0.8,0.7-1.5,1.5-1.5s1.5,0.7,1.5,1.5v12
					C21.7,47.8,21.1,48.5,20.2,48.5z"/>
			</g>
			<g>
				<path class="st11" d="M27.7,48.5c-0.3,0-0.7-0.1-0.9-0.3l-7.5-6c-0.4-0.3-0.6-0.7-0.6-1.2s0.2-0.9,0.6-1.2l7.5-6
					c0.6-0.5,1.6-0.4,2.1,0.2s0.4,1.6-0.2,2.1l-6,4.8l6,4.8c0.6,0.5,0.8,1.5,0.2,2.1C28.6,48.3,28.2,48.5,27.7,48.5z"/>
			</g>
			<g>
				<path class="st11" d="M37.7,48.5c-4.1,0-7.5-3.4-7.5-7.5s3.4-7.5,7.5-7.5c2,0,3.9,0.8,5.3,2.2c0.6,0.6,0.6,1.5,0,2.1
					c-0.6,0.6-1.5,0.6-2.1,0c-0.9-0.9-2-1.3-3.2-1.3c-2.5,0-4.5,2-4.5,4.5s2,4.5,4.5,4.5c2,0,3.6-1.3,4.2-3h-4.2
					c-0.8,0-1.5-0.7-1.5-1.5s0.7-1.5,1.5-1.5h6c0.8,0,1.5,0.7,1.5,1.5C45.2,45.1,41.9,48.5,37.7,48.5z"/>
			</g>
		</g>
	</g>
</g>
</svg>
