<svg xmlns="http://www.w3.org/2000/svg" viewBox="0 0 512 512"><title>Gym_Station</title><g id="artwork"><g id="_11_gym_station" data-name="11_gym_station"><rect x="343.85" y="193.55" width="35.49" height="65.29" rx="15.42" style="fill:#dcd3d4"/><path d="M303.34,314.58c.12-.29.23-.58.34-.87h43.45V281.17h-42V214.53a24,24,0,0,0-24-24H269.6a24,24,0,0,0-24,24v66.64H201.28v32.54H247c.11.29.22.58.34.87h-87.2V454.32H389.79V314.58Z" style="fill:#dcd3d4"/><rect x="145.61" y="180.09" width="35.48" height="65.29" rx="15.42" style="fill:#dc4038"/><rect x="326.11" y="180.09" width="35.48" height="65.29" rx="15.42" style="fill:#dc4038"/><rect x="139.54" y="305.61" width="229.64" height="128.44" style="fill:#ffeef0"/><rect x="209.85" y="301.43" width="88.12" height="132.91" style="fill:#f3b5af"/><rect x="235.86" y="57.09" width="37.56" height="89.69" style="fill:#c7b4b6"/><path d="M69.12,161.62h0A13.24,13.24,0,0,1,67.39,143l45.52-54.83H401l39.43,55a13.24,13.24,0,0,1-3,18.47h0a13.24,13.24,0,0,1-18.47-3l-31.51-44h-262L87.76,159.89A13.23,13.23,0,0,1,69.12,161.62Z" style="fill:#f3b5af"/><rect x="180.66" y="274.89" width="145.85" height="29.91" style="fill:#e08476"/><rect x="234.61" y="323.09" width="37.56" height="132.91" style="fill:#fff"/><rect x="180.66" y="357.55" width="145.02" height="25.53" rx="11.09" style="fill:#c5b5b6"/><path d="M318.88,370.4H187.46a6.8,6.8,0,0,1-6.8-6.8h0a6.79,6.79,0,0,1,6.8-6.8H318.88a6.79,6.79,0,0,1,6.8,6.8h0A6.8,6.8,0,0,1,318.88,370.4Z" style="fill:#dcd3d4"/><rect x="185.12" y="225.69" width="139.04" height="59.49" rx="24" transform="translate(510.07 0.8) rotate(90)" style="fill:#3d5890"/><path d="M224.59,303.81V207.06a21.15,21.15,0,0,1,21.15-21.15h0a21.14,21.14,0,0,1,21.14,21.15v96.75A21.13,21.13,0,0,1,245.74,325h0A21.14,21.14,0,0,1,224.59,303.81Z" style="fill:#4966a2"/><path d="M336,245.38h0a9.89,9.89,0,0,1-9.89-9.89V190a9.89,9.89,0,0,1,9.89-9.89h0a9.89,9.89,0,0,1,9.89,9.89v45.51A9.89,9.89,0,0,1,336,245.38Z" style="fill:#f2463e"/><path d="M155.5,245.38h0a9.89,9.89,0,0,1-9.89-9.89V190a9.89,9.89,0,0,1,9.89-9.89h0a9.88,9.88,0,0,1,9.88,9.89v45.51A9.88,9.88,0,0,1,155.5,245.38Z" style="fill:#f2463e"/><path d="M444.91,139.66,403.68,82.15H278.16V50H229V82.15H109.75l-47.32,57A19.24,19.24,0,0,0,77.2,170.68c.6,0,1.2,0,1.81-.09a19.1,19.1,0,0,0,13-6.86l35.78-43.1h68.66v20.15h-6.58l-29.27,33.33a21.43,21.43,0,0,0-21,21.39V230A21.44,21.44,0,0,0,161,251.38h4.66A21.44,21.44,0,0,0,187.09,230V195.5a21.43,21.43,0,0,0-12.3-19.35l20.53-23.37h1.15V268.4H174.69v31.21H133.54V440h95.07v10H92v12H420V450H277.73V440h97.45V299.61H332.51V268.4H310.73V152.78h1.88l19.93,23.31a21.43,21.43,0,0,0-12.43,19.41V230a21.45,21.45,0,0,0,21.42,21.42h4.65A21.45,21.45,0,0,0,367.6,230V195.5a21.44,21.44,0,0,0-21-21.39l-28.51-33.33h-7.4V120.63h73.2l29.72,41.44a19.23,19.23,0,1,0,31.26-22.41ZM175.09,195.5V230a9.43,9.43,0,0,1-9.41,9.42H161a9.43,9.43,0,0,1-9.41-9.42V195.5a9.42,9.42,0,0,1,9.41-9.41h4.66A9.42,9.42,0,0,1,175.09,195.5Zm166.44-9.41h4.65a9.43,9.43,0,0,1,9.42,9.41V230a9.44,9.44,0,0,1-9.42,9.42h-4.65a9.44,9.44,0,0,1-9.42-9.42V195.5A9.43,9.43,0,0,1,341.53,186.09ZM241,62h25.12V82.15H241ZM186.69,280.4h31.17v18.4H186.69Zm41.92-127.62h70.12V268.4h-9.38V209.91a30,30,0,0,0-30-30h-.18V163.43h-12v16.5a30,30,0,0,0-29.31,30V268.4h-9.39V152.78Zm-20.14-12V120.63h20.14v20.15Zm32.14,0V120.63h25.12v20.15Zm37.12,0V120.63h21v20.15ZM259.35,319h-11.5a18,18,0,0,1-18-18v-91a18,18,0,0,1,18-18h11.5a18,18,0,0,1,18,18v91A18,18,0,0,1,259.35,319Zm6.38,11.31v21.29H240.61V330.06a29.85,29.85,0,0,0,7.24.89h11.5A29.84,29.84,0,0,0,265.73,330.26ZM145.54,343.72h64.31v-12H145.54V311.61h74.28a30,30,0,0,0,8.79,12.33v27.61H191.75a17.11,17.11,0,0,0-16.39,12.28H145.54Zm0,84.32v-20.1h64.31v-12H145.54V375.83h29.57a17.12,17.12,0,0,0,16.64,13.24h36.86v39Zm95.07,22V389.07h25.12V450Zm-12-72.93H191.75a5.09,5.09,0,0,1-5.09-5.09v-3.35a5.09,5.09,0,0,1,5.09-5.08H314.59a5.09,5.09,0,0,1,5.09,5.08V372a5.09,5.09,0,0,1-5.09,5.09h-86Zm134.57,18.87H298v12h65.23V428H277.73v-39h36.86a17.12,17.12,0,0,0,16.64-13.24h31.95Zm0-84.33v20.11H297.87v12h65.31v20.11H331a17.11,17.11,0,0,0-16.39-12.28H277.73V324.64a30.17,30.17,0,0,0,9.66-13ZM320.51,280.4v18.4H289.35V280.4Zm113-123.65a7.23,7.23,0,0,1-10.09-1.67l-33.31-46.45H122.18L82.8,156.06a7.25,7.25,0,0,1-10.19.95,7.24,7.24,0,0,1-1-10.19l43.72-52.67H397.52l37.64,52.5A7.25,7.25,0,0,1,433.49,156.75Z" style="fill:#142546"/><rect x="33.62" y="450" width="32.29" height="12" style="fill:#142546"/><rect x="446.09" y="450" width="32.29" height="12" style="fill:#142546"/></g></g></svg>